<?xml version="1.0" encoding="utf-8"?>
<!-- Generated by IcoMoon.io -->
<svg version="1.1" xmlns="http://www.w3.org/2000/svg" xmlns:xlink="http://www.w3.org/1999/xlink" width="1020" height="32" viewBox="0 0 1020 32">
<svg id="icon-chevron-down" width="32" height="32" viewBox="0 0 32 32" x="0" y="0">
    <symbol id="icon-chevron-down" viewBox="0 0 32 32">
        <path stroke-linejoin="round" stroke-linecap="round" stroke-miterlimit="4" stroke-width="3" d="M24 20l-8-8-8 8"></path>
    </symbol>
</svg>
<svg id="icon-block" width="32" height="32" viewBox="0 0 32 32" x="52" y="0">
    <symbol id="icon-block" viewBox="0 0 32 32">
        <path stroke-linejoin="miter" stroke-linecap="butt" stroke-miterlimit="4" stroke-width="1.28" d="M31.36 16c0 8.483-6.877 15.36-15.36 15.36s-15.36-6.877-15.36-15.36c0-8.483 6.877-15.36 15.36-15.36s15.36 6.877 15.36 15.36z"></path>
        <path d="M11.52 9.6h8.96c1.060 0 1.92 0.86 1.92 1.92v8.96c0 1.060-0.86 1.92-1.92 1.92h-8.96c-1.060 0-1.92-0.86-1.92-1.92v-8.96c0-1.060 0.86-1.92 1.92-1.92z"></path>
    </symbol>
</svg>
<svg id="icon-block-2" width="32" height="32" viewBox="0 0 32 32" x="104" y="0">
    <symbol id="icon-block-2" viewBox="0 0 32 32">
        <path d="M28.8 16c0 7.069-5.731 12.8-12.8 12.8s-12.8-5.731-12.8-12.8c0-7.069 5.731-12.8 12.8-12.8s12.8 5.731 12.8 12.8z"></path>
        <path stroke-linejoin="miter" stroke-linecap="butt" stroke-miterlimit="4" stroke-width="1.28" d="M31.36 16c0 8.483-6.877 15.36-15.36 15.36s-15.36-6.877-15.36-15.36c0-8.483 6.877-15.36 15.36-15.36s15.36 6.877 15.36 15.36z"></path>
    </symbol>
</svg>
<svg id="icon-check-on" width="32" height="32" viewBox="0 0 32 32" x="156" y="0">
    <symbol id="icon-check-on" viewBox="0 0 32 32">
        <path d="M15 21.76l-5.4-6.080 1.8-2.027 3.6 4.053 7.2-8.106 1.8 2.027-9 10.133z"></path>
        <path d="M0 16c0 8.837 7.163 16 16 16s16-7.163 16-16c0-8.837-7.163-16-16-16s-16 7.163-16 16zM16 29.091c-7.23 0-13.090-5.861-13.090-13.090s5.861-13.090 13.090-13.090v0c7.23 0 13.090 5.861 13.090 13.090s-5.861 13.090-13.090 13.090v0z"></path>
    </symbol>
</svg>
<svg id="icon-error" width="32" height="32" viewBox="0 0 32 32" x="208" y="0">
    <symbol id="icon-error" viewBox="0 0 32 32">
        <path d="M16 29v0c-7.18 0-13-5.82-13-13s5.82-13 13-13v0c7.18 0 13 5.82 13 13s-5.82 13-13 13zM16 32c8.837 0 16-7.163 16-16s-7.163-16-16-16v0c-8.837 0-16 7.163-16 16s7.163 16 16 16v0zM18 22c0 1.105-0.895 2-2 2s-2-0.895-2-2v0c0-1.105 0.895-2 2-2s2 0.895 2 2v0zM17.499 9.499c-0.038-0.799-0.695-1.432-1.499-1.432s-1.461 0.633-1.499 1.428l-0 0.003v7c0 0.828 0.671 1.499 1.499 1.499s1.499-0.671 1.499-1.499v0-6.997z"></path>
    </symbol>
</svg>
<svg id="icon-eye-off" width="32" height="32" viewBox="0 0 32 32" x="260" y="0">
    <symbol id="icon-eye-off" viewBox="0 0 32 32">
        <path stroke-linejoin="round" stroke-linecap="round" stroke-miterlimit="4" stroke-width="2.0800" d="M23.92 23.92c-2.175 1.672-4.923 2.696-7.908 2.747l-0.012 0c-9.333 0-14.667-10.667-14.667-10.667 1.713-3.152 3.978-5.791 6.689-7.877l0.058-0.043M13.2 5.653c0.833-0.203 1.788-0.32 2.771-0.32 0.010 0 0.020 0 0.030 0h-0.002c9.333 0 14.667 10.667 14.667 10.667-0.872 1.615-1.827 3.008-2.91 4.289l0.030-0.036M18.827 18.827c-0.731 0.774-1.764 1.256-2.91 1.256-2.209 0-4-1.791-4-4 0-1.146 0.482-2.179 1.254-2.909l0.002-0.002M1.333 1.333l29.334 29.334"></path>
    </symbol>
</svg>
<svg id="icon-eye" width="32" height="32" viewBox="0 0 32 32" x="312" y="0">
    <symbol id="icon-eye" viewBox="0 0 32 32">
        <path stroke-linejoin="round" stroke-linecap="round" stroke-miterlimit="4" stroke-width="2.0800" d="M1.333 16s5.334-10.667 14.667-10.667 14.667 10.667 14.667 10.667-5.334 10.667-14.667 10.667-14.667-10.667-14.667-10.667z"></path>
        <path stroke-linejoin="round" stroke-linecap="round" stroke-miterlimit="4" stroke-width="2.0800" d="M16 20c2.209 0 4-1.791 4-4s-1.791-4-4-4v0c-2.209 0-4 1.791-4 4s1.791 4 4 4v0z"></path>
    </symbol>
</svg>
<svg id="icon-log-in" width="32" height="32" viewBox="0 0 32 32" x="364" y="0">
    <symbol id="icon-log-in" viewBox="0 0 32 32">
        <path stroke-linejoin="round" stroke-linecap="round" stroke-miterlimit="4" stroke-width="2.6667" d="M18.667 22.667l6.667-6.667-6.667-6.667M25.333 16h-18.667"></path>
    </symbol>
</svg>
<svg id="icon-attachment" width="32" height="32" viewBox="0 0 32 32" x="416" y="0">
    <symbol id="icon-attachment" viewBox="0 0 32 32">
        <path d="M28.1 18.9l-14.997-14.999c-2.501-2.603-6.603-2.603-9.202-0.101-1.203 1.165-1.95 2.795-1.95 4.6s0.747 3.435 1.949 4.598l0.002 0.002 0.1 0.101 2.8 2.9 1.401-1.401-2.901-2.898c-1.7-1.701-1.7-4.601 0-6.302 1.701-1.7 4.601-1.799 6.3-0.1l14.999 15.001c1.801 1.7 1.801 4.599 0.101 6.299-1.701 1.801-4.601 1.801-6.3 0.101l-7.5-7.5c-0.999-1.001-0.9-2.601 0-3.5 0.461-0.419 1.076-0.675 1.75-0.675s1.29 0.256 1.752 0.677l-0.002-0.002 4.1 4.1 1.401-1.399-4.201-4.201c-0.794-0.751-1.868-1.213-3.050-1.213-1.281 0-2.436 0.543-3.247 1.411l-0.002 0.003c-1.6 1.7-1.6 4.4 0 6.201l7.499 7.499c2.5 2.601 6.601 2.601 9.2 0.101 2.601-2.501 2.601-6.702 0-9.301 0 0.1 0 0 0 0z"></path>
    </symbol>
</svg>
<svg id="icon-pie-chart" width="32" height="32" viewBox="0 0 32 32" x="468" y="0">
    <symbol id="icon-pie-chart" viewBox="0 0 32 32">
        <path stroke-linejoin="round" stroke-linecap="round" stroke-miterlimit="4" stroke-width="3.2" d="M22.933 18.667c0.37 0 0.555 0 0.704 0.080 0.13 0.076 0.232 0.188 0.293 0.322l0.002 0.004c0.066 0.157 0.048 0.323 0.016 0.658-0.56 5.414-5.097 9.599-10.612 9.599-5.89 0-10.666-4.775-10.666-10.666 0-5.514 4.185-10.051 9.552-10.608l0.046-0.004c0.336-0.032 0.502-0.050 0.659 0.016 0.13 0.056 0.256 0.171 0.325 0.294 0.082 0.149 0.082 0.334 0.082 0.704v8.533c0 0.373 0 0.56 0.074 0.704 0.064 0.125 0.166 0.226 0.291 0.29 0.144 0.074 0.33 0.074 0.704 0.074h8.531z"></path>
        <path stroke-linejoin="round" stroke-linecap="round" stroke-miterlimit="4" stroke-width="3.2" d="M18.667 3.733c0-0.368 0-0.554 0.082-0.704 0.075-0.129 0.187-0.23 0.32-0.291l0.004-0.002c0.157-0.066 0.323-0.050 0.658-0.016 5.050 0.522 9.027 4.499 9.545 9.503l0.004 0.046c0.034 0.334 0.051 0.501-0.016 0.658-0.063 0.138-0.164 0.249-0.289 0.323l-0.003 0.002c-0.15 0.082-0.336 0.082-0.704 0.082h-8.534c-0.373 0-0.56 0-0.702-0.072-0.126-0.065-0.226-0.165-0.289-0.287l-0.002-0.004c-0.072-0.144-0.072-0.33-0.072-0.704v-8.531z"></path>
    </symbol>
</svg>
<svg id="icon-hourglass" width="32" height="32" viewBox="0 0 32 32" x="520" y="0">
    <symbol id="icon-hourglass" viewBox="0 0 32 32">
        <path stroke-linejoin="round" stroke-linecap="round" stroke-miterlimit="4" stroke-width="3.2" d="M16 16l-5.696-4.747c-0.848-0.706-1.27-1.059-1.574-1.491-0.257-0.361-0.46-0.782-0.585-1.236l-0.007-0.028c-0.138-0.507-0.138-1.058-0.138-2.162v-3.669M16 16l5.696-4.747c0.848-0.706 1.27-1.059 1.574-1.491 0.257-0.361 0.46-0.782 0.585-1.236l0.007-0.028c0.138-0.507 0.138-1.058 0.138-2.162v-3.669M16 16l-5.696 4.747c-0.848 0.706-1.27 1.059-1.574 1.491-0.257 0.361-0.46 0.782-0.585 1.236l-0.007 0.028c-0.138 0.507-0.138 1.058-0.138 2.162v3.669M16 16l5.696 4.747c0.848 0.706 1.27 1.059 1.574 1.491 0.257 0.361 0.46 0.782 0.585 1.236l0.007 0.028c0.138 0.509 0.138 1.059 0.138 2.162v3.669M5.333 2.667h21.334M5.333 29.333h21.334"></path>
    </symbol>
</svg>
<svg id="icon-Logo" width="32" height="32" viewBox="0 0 32 32" x="572" y="0">
    <symbol id="icon-Logo" viewBox="0 0 32 32">
        <path d="M0 17.905v-8.381h9.821c1.336 0 2.636 0.425 3.713 1.214 0.639 0.472 1.146 1.085 1.483 1.794l0.012 0.029 1.136 2.442c0.484-1.168 1.034-2.172 1.678-3.105l-0.036 0.055 0.056-0.082c0.187-0.275 0.402-0.53 0.639-0.763l0.484-0.472c0.307-0.3 0.672-0.541 1.078-0.703l0.022-0.008 0.042-0.017c0.605-0.243 1.307-0.385 2.042-0.385 0 0 0.001 0 0.001 0h9.829v8.381h-32zM0 19.429h32v3.048h-32z"></path>
    </symbol>
</svg>
</svg>
